<svg xmlns="http://www.w3.org/2000/svg" x="0px" y="0px"
width="40" height="40"
viewBox="0 0 172 172"
style=" fill:#000000;"><g fill="none" fill-rule="nonzero" stroke="none" stroke-width="1" stroke-linecap="butt" stroke-linejoin="miter" stroke-miterlimit="10" stroke-dasharray="" stroke-dashoffset="0" font-family="none" font-weight="none" font-size="none" text-anchor="none" style="mix-blend-mode: normal"><path d="M0,172v-172h172v172z" fill="none"></path><g><path d="M30.1,159.96c-6.16445,0 -11.18,-5.01555 -11.18,-11.18v-118.68c0,-6.16445 5.01555,-11.18 11.18,-11.18h118.68c6.16445,0 11.18,5.01555 11.18,11.18v118.68c0,6.16445 -5.01555,11.18 -11.18,11.18z" fill="#000000" opacity="0.35"></path><path d="M26.66,156.52c-6.16445,0 -11.18,-5.01555 -11.18,-11.18v-118.68c0,-6.16445 5.01555,-11.18 11.18,-11.18h118.68c6.16445,0 11.18,5.01555 11.18,11.18v118.68c0,6.16445 -5.01555,11.18 -11.18,11.18z" fill="#000000"></path><rect x="15.5" y="15.5" transform="scale(1.72,1.72)" width="69" height="69" fill="#d94f5c"></rect><path d="M145.34,103.2h-56.76v-34.4h56.76c1.42437,0 2.58,-1.15479 2.58,-2.58c0,-1.42521 -1.15562,-2.58 -2.58,-2.58h-56.76v-36.98c0,-1.42521 -1.15563,-2.58 -2.58,-2.58c-1.42437,0 -2.58,1.15479 -2.58,2.58v36.98h-56.76c-1.42438,0 -2.58,1.15479 -2.58,2.58c0,1.42521 1.15563,2.58 2.58,2.58h56.76v34.4h-56.76c-1.42438,0 -2.58,1.15479 -2.58,2.58c0,1.42521 1.15563,2.58 2.58,2.58h56.76v36.98c0,1.42521 1.15563,2.58 2.58,2.58c1.42437,0 2.58,-1.15479 2.58,-2.58v-36.98h56.76c1.42437,0 2.58,-1.15479 2.58,-2.58c0,-1.42521 -1.15562,-2.58 -2.58,-2.58z" fill="#ffffff" opacity="0.35"></path><path d="M145.34,147.92h-118.68c-1.42438,0 -2.58,-1.15479 -2.58,-2.58v-118.68c0,-1.42521 1.15563,-2.58 2.58,-2.58h118.68c1.42437,0 2.58,1.15479 2.58,2.58v118.68c0,1.42521 -1.15562,2.58 -2.58,2.58zM29.24,142.76h113.52v-113.52h-113.52z" fill="#ffffff"></path></g></g></svg>