<svg xmlns="http://www.w3.org/2000/svg" x="0px" y="0px"
width="48" height="48"
viewBox="0 0 172 172"
style=" fill:#000000;"><g fill="none" fill-rule="nonzero" stroke="none" stroke-width="1" stroke-linecap="butt" stroke-linejoin="miter" stroke-miterlimit="10" stroke-dasharray="" stroke-dashoffset="0" font-family="none" font-weight="none" font-size="none" text-anchor="none" style="mix-blend-mode: normal"><path d="M0,172v-172h172v172z" fill="none"></path><g><path d="M130.74687,68.69922l-0.03359,-2.41875c-9.74219,-0.30234 -19.41719,0.26875 -29.12578,0.83984c-0.03359,-0.26875 -0.06719,-0.50391 -0.13437,-0.77266h-0.13437c0,-0.30234 0,-0.57109 0,-0.87344c-0.03359,-0.13438 -0.03359,-0.26875 -0.06719,-0.40313c0,-0.43672 -0.03359,-0.87344 -0.06719,-1.31016c0.03359,0 0.10078,0 0.13437,0c0,-7.76016 0.06719,-15.52031 0.06719,-23.28047c-7.02109,-0.03359 -14.04219,-0.33594 -21.09687,-0.33594h-13.30312c-0.03359,0.23516 -0.06719,0.50391 -0.06719,0.73906c-0.06719,1.24297 -0.06719,2.45234 -0.03359,3.69531c0.03359,2.35156 0.13438,4.70313 0.20156,7.05469c0.13438,4.43437 0.30234,8.86875 0.47031,13.30312v0v0c0,0.47031 0.03359,0.94063 0.03359,1.37734h-0.23516l-0.26875,1.94844c-9.27187,0.10078 -18.54375,0.06719 -27.81562,0.13438c0,7.02109 -0.20156,14.04219 -0.16797,21.09687l0.20156,13.30312c0.23516,0.03359 0.50391,0.03359 0.73906,0.06719c1.24297,0.03359 2.45234,0.03359 3.69531,0c2.35156,-0.03359 4.70313,-0.16797 7.05469,-0.23516c5.47578,-0.20156 11.35469,-0.47031 16.83047,-0.67187l-0.10078,0.67188h0.03359c0,0.70547 0,1.44453 -0.03359,2.15c-0.06719,8.73438 -0.23516,17.50234 0.50391,26.20313c5.9125,0.57109 12.06016,0.47031 17.93906,0.13437c4.66953,-0.26875 9.97734,-1.14219 14.44531,0.73906h2.41875c0.36953,-9.77578 -0.13437,-19.48437 -0.60469,-29.22656h0.20156v-0.80625c0.50391,0 0.97422,0 1.47812,0c8.73438,0 17.50234,0.10078 26.20313,-0.70547c0.50391,-5.9125 0.36953,-12.06016 0,-17.93906c-0.26875,-4.70312 -1.20937,-10.01094 0.63828,-14.47891z" fill="#d94f5c"></path><path d="M159.30156,54.32109c-5.40859,-15.65469 -15.68828,-29.26016 -30.67109,-36.81875c-17.09922,-8.6 -37.25547,-9.40625 -55.9,-6.45c-16.69609,2.65391 -34.33281,8.70078 -46.86328,20.52578c-6.58438,6.21484 -11.65703,13.73984 -14.34453,22.44063c-2.6875,8.73438 -3.49375,17.83828 -4.06484,26.90859c-0.03359,0.36953 -0.13437,0.67188 -0.33594,0.90703c0,0.06719 0.03359,0.16797 0.03359,0.26875c0,17.77109 -0.36953,36.38203 10.11172,51.70078c8.49922,12.46328 21.66797,20.66016 36.0125,24.75859c29.5625,8.46562 65.23906,3.225 88.98984,-17.06563c24.89297,-21.26484 27.17734,-57.88203 17.03203,-87.17578zM133.56875,84.62266c0.10078,6.11406 0.40313,12.22812 -0.20156,18.34219c-0.06719,0.73906 -0.80625,1.27656 -1.51172,1.37734c-8.63359,0.90703 -17.36797,0.87344 -26.06875,0.87344c0.47031,9.40625 0.83984,18.8125 0.40313,28.21875c-0.03359,0.83984 -0.5375,1.81406 -1.54531,1.81406h-5.03906c-0.57109,0 -1.04141,-0.23516 -1.34375,-0.60469c-4.26641,-1.37734 -9.40625,-0.10078 -13.70625,-0.06719c-6.11406,0.03359 -12.22813,0.30234 -18.34219,-0.36953c-0.73906,-0.06719 -1.27656,-0.80625 -1.34375,-1.51172c-0.87344,-9.07031 -0.73906,-18.20781 -0.63828,-27.31172c-4.97188,0.20156 -9.94375,0.50391 -14.91562,0.70547c-2.65391,0.10078 -5.34141,0.23516 -8.02891,0.20156c-1.37734,-0.03359 -4.16562,0.23516 -5.00547,-1.24297c-0.06719,-0.13437 -0.13438,-0.23516 -0.16797,-0.36953c-0.06719,-0.20156 -0.13438,-0.40313 -0.13438,-0.63828l-0.10078,-14.17656c-0.06719,-7.525 0.20156,-15.05 0.16797,-22.575c0,-0.16797 0.03359,-0.30234 0.06719,-0.43672c-0.06719,-0.83984 0.40313,-1.67969 1.47812,-1.71328c8.76797,-0.06719 17.93906,-0.03359 26.80781,-0.10078c-0.16797,-4.97188 -0.40312,-9.94375 -0.57109,-14.88203c-0.10078,-2.65391 -0.20156,-5.34141 -0.13437,-8.02891c0.03359,-1.37734 -0.20156,-4.16562 1.27656,-4.97187c0.13438,-0.06719 0.23516,-0.13438 0.36953,-0.16797c0.20156,-0.06719 0.40312,-0.13438 0.63828,-0.13438h14.17656c7.525,0 15.05,0.33594 22.575,0.33594c0.16797,0 0.30234,0.03359 0.43672,0.06719c0.83984,-0.06719 1.67969,0.40313 1.67969,1.47813c0,8.29766 -0.06719,16.59531 -0.10078,24.89297c9.17109,-0.50391 18.34219,-0.94063 27.54688,-0.57109c0.83984,0.03359 1.81406,0.5375 1.81406,1.54531l0.03359,4.53516c0,0 0,0 0,0.03359v0.50391c0,0.57109 -0.23516,1.04141 -0.60469,1.34375c-1.37734,4.16562 -0.03359,9.27187 0.03359,13.60547z" fill="#ffffff"></path><path d="M163.90391,56.67266c-4.77031,-15.75547 -13.73984,-29.66328 -27.54687,-38.86797c-15.5875,-10.41406 -35.37422,-12.9 -53.68281,-11.55625c-17.36797,1.27656 -35.13906,6.01328 -49.92031,15.45313c-7.25625,4.63594 -13.73984,10.71641 -18.47656,17.93906c-4.97187,7.55859 -7.55859,16.32656 -8.90234,25.2625c-0.77266,5.07266 -1.14219,10.17891 -1.47812,15.31875c-0.03359,0.30234 0.03359,0.60469 0.13437,0.87344c-0.30234,0.30234 -0.50391,0.73906 -0.50391,1.27656c0,10.11172 -0.20156,20.29062 1.54531,30.30156c1.6125,9.10391 5.10625,17.77109 10.61563,25.22891c9.80938,13.26953 24.69141,21.26484 40.44688,25.19531c29.86484,7.45781 65.23906,1.24297 88.85547,-19.18203c24.85938,-21.5 27.95,-57.37812 18.91328,-87.24297zM142.26953,141.49687c-23.78437,20.29063 -59.42734,25.53125 -88.98984,17.06563c-14.34453,-4.09844 -27.51328,-12.29531 -36.0125,-24.75859c-10.44766,-15.31875 -10.11172,-33.92969 -10.11172,-51.70078c0,-0.10078 0,-0.16797 -0.03359,-0.26875c0.16797,-0.23516 0.30234,-0.5375 0.33594,-0.90703c0.57109,-9.07031 1.37734,-18.17422 4.06484,-26.90859c2.65391,-8.70078 7.76016,-16.25938 14.34453,-22.44063c12.53047,-11.825 30.16719,-17.87188 46.89687,-20.52578c18.61094,-2.95625 38.76719,-2.15 55.9,6.45c14.98281,7.55859 25.22891,21.19766 30.67109,36.81875c10.11172,29.29375 7.82734,65.91094 -17.06563,87.17578z" fill="#000000"></path><path d="M133.50156,70.91641c0.36953,-0.30234 0.60469,-0.73906 0.60469,-1.34375v-0.50391c0,0 0,0 0,-0.03359l-0.03359,-4.53516c0,-1.00781 -0.97422,-1.51172 -1.81406,-1.54531c-9.20469,-0.36953 -18.37578,0.03359 -27.54687,0.57109c0,-8.29766 0.10078,-16.59531 0.10078,-24.89297c0,-1.075 -0.83984,-1.54531 -1.67969,-1.47812c-0.13437,-0.03359 -0.30234,-0.06719 -0.43672,-0.06719c-7.525,0 -15.05,-0.33594 -22.575,-0.33594h-14.17656c-0.23516,0 -0.47031,0.03359 -0.63828,0.13437c-0.13438,0.03359 -0.23516,0.10078 -0.36953,0.16797c-1.47812,0.83984 -1.24297,3.59453 -1.27656,4.97188c-0.06719,2.6875 0.03359,5.34141 0.13437,8.02891c0.16797,4.97188 0.43672,9.91016 0.57109,14.88203c-8.86875,0.06719 -18.00625,0.03359 -26.80781,0.10078c-1.075,0 -1.54531,0.87344 -1.47812,1.71328c-0.03359,0.13438 -0.06719,0.30234 -0.06719,0.43672c0.03359,7.525 -0.23516,15.05 -0.16797,22.575l0.10078,14.17656c0,0.23516 0.03359,0.47031 0.13438,0.63828c0.03359,0.13438 0.10078,0.23516 0.16797,0.36953c0.83984,1.47812 3.62812,1.20938 5.00547,1.24297c2.6875,0.06719 5.34141,-0.06719 8.02891,-0.20156c4.97188,-0.20156 9.94375,-0.50391 14.91562,-0.70547c-0.10078,9.10391 -0.23516,18.275 0.63828,27.31172c0.06719,0.70547 0.60469,1.44453 1.34375,1.51172c6.08047,0.67188 12.22813,0.40313 18.34219,0.36953c4.33359,-0.03359 9.47344,-1.31016 13.70625,0.06719c0.30234,0.36953 0.73906,0.60469 1.34375,0.60469h5.03906c1.00781,0 1.51172,-0.94063 1.54531,-1.81406c0.47031,-9.43984 0.06719,-18.8125 -0.40313,-28.21875c8.70078,0.03359 17.43516,0.03359 26.06875,-0.87344c0.70547,-0.06719 1.44453,-0.60469 1.51172,-1.37734c0.63828,-6.08047 0.30234,-12.22813 0.20156,-18.34219c-0.03359,-4.23281 -1.37734,-9.33906 -0.03359,-13.60547zM130.14219,83.14453c0.36953,5.9125 0.5375,12.02656 0,17.93906c-8.70078,0.80625 -17.46875,0.70547 -26.20313,0.70547c-0.50391,0 -0.97422,0 -1.47812,0v0.80625h-0.20156c0.50391,9.74219 0.97422,19.48438 0.60469,29.22656h-2.41875c-4.46797,-1.88125 -9.77578,-1.00781 -14.44531,-0.73906c-5.9125,0.33594 -12.02656,0.43672 -17.93906,-0.13437c-0.73906,-8.70078 -0.57109,-17.46875 -0.50391,-26.20313c0,-0.70547 0,-1.44453 0.03359,-2.15h-0.06719l0.10078,-0.67187c-5.47578,0.20156 -11.35469,0.47031 -16.83047,0.67188c-2.35156,0.06719 -4.70312,0.20156 -7.05469,0.23516c-1.24297,0.03359 -2.45234,0.03359 -3.69531,0c-0.23516,0 -0.50391,-0.03359 -0.73906,-0.06719l-0.10078,-13.30313c-0.06719,-7.02109 0.16797,-14.07578 0.16797,-21.09687c9.27188,-0.06719 18.54375,-0.03359 27.81562,-0.13438l0.26875,-1.94844h0.23516c0,-0.47031 -0.03359,-0.94063 -0.03359,-1.37734v0v0c-0.13438,-4.43438 -0.33594,-8.86875 -0.47031,-13.30313c-0.06719,-2.35156 -0.16797,-4.70312 -0.20156,-7.05469c0,-1.24297 0,-2.45234 0.03359,-3.69531c0,-0.23516 0.03359,-0.50391 0.06719,-0.73906h13.30312c7.02109,0 14.04219,0.26875 21.09687,0.33594c0,7.76016 -0.06719,15.52031 -0.06719,23.28047c-0.03359,0 -0.10078,0 -0.13437,0c0.03359,0.43672 0.06719,0.87344 0.06719,1.31016c0,0.13438 0.03359,0.26875 0.06719,0.40313c0,0.30234 0,0.57109 0,0.87344h0.13437c0.03359,0.26875 0.06719,0.50391 0.13437,0.77266c9.70859,-0.57109 19.38359,-1.10859 29.12578,-0.83984l0.03359,2.41875c-1.94844,4.50156 -1.00781,9.80938 -0.70547,14.47891z" fill="#000000"></path></g></g></svg>